<?xml version="1.0" encoding="UTF-8" standalone="no"?>
<!DOCTYPE svg PUBLIC "-//W3C//DTD SVG 1.1//EN" "http://www.w3.org/Graphics/SVG/1.1/DTD/svg11.dtd">
<svg width="100%" height="100%" viewBox="0 0 1024 1024" version="1.1" xmlns="http://www.w3.org/2000/svg" xmlns:xlink="http://www.w3.org/1999/xlink" xml:space="preserve" xmlns:serif="http://www.serif.com/" style="fill-rule:evenodd;clip-rule:evenodd;stroke-linecap:round;stroke-linejoin:round;stroke-miterlimit:1.5;">
    <g transform="matrix(1,0,0,1,59,-28)">
        <g id="Favicon">
            <g transform="matrix(1.670473,0,0,1.670473,-459.91354,-441.402936)">
                <circle cx="546.5" cy="587.5" r="306.5" style="fill:url(#_Linear1);"/>
            </g>
            <g id="Alt" transform="matrix(0.737774,0,0,0.737774,-129.841494,182.548476)">
                <g transform="matrix(1.227512,-0.446778,-0,1.115101,202.635303,-9.742644)">
                    <path d="M587,1061.887L370,888L370,208L370,888L153,888L153,208L370,208L587,381.887L587,1061.887L587,381.887L804,381.887L804,1061.887L587,1061.887" style="fill:none;stroke:rgb(240,240,240);stroke-width:57.15px;"/>
                </g>
                <g transform="matrix(1.227512,-0.446778,-0,1.115101,202.635303,-388.876822)">
                    <path d="M153,888L370,888L587,1061.887L370,888L587,1061.887L804,1061.887" style="fill:none;stroke:rgb(240,240,240);stroke-width:57.15px;"/>
                </g>
            </g>
        </g>
    </g>
    <defs>
        <linearGradient id="_Linear1" x1="0" y1="0" x2="1" y2="0" gradientUnits="userSpaceOnUse" gradientTransform="matrix(613,613,-613,613,240,281)"><stop offset="0" style="stop-color:rgb(56,189,248);stop-opacity:1"/><stop offset="1" style="stop-color:rgb(45,212,191);stop-opacity:1"/></linearGradient>
    </defs>
</svg>
