<?xml version="1.0" encoding="UTF-8" standalone="no"?>
<!DOCTYPE svg PUBLIC "-//W3C//DTD SVG 1.1//EN" "http://www.w3.org/Graphics/SVG/1.1/DTD/svg11.dtd">
<svg width="100%" height="100%" viewBox="0 0 709 754" version="1.1" xmlns="http://www.w3.org/2000/svg" xmlns:xlink="http://www.w3.org/1999/xlink" xml:space="preserve" xmlns:serif="http://www.serif.com/" style="fill-rule:evenodd;clip-rule:evenodd;stroke-linejoin:round;stroke-miterlimit:2;">
    <g transform="matrix(1,0,0,1,-157.905176,-135.187205)">
        <g transform="matrix(0.864709,0,0,0.864709,120.28675,45.057302)">
            <g transform="matrix(1,0,0,1,-59,28)">
                <path d="M411.358,145.929L612.642,219.19L612.642,522.992L411.358,449.73L411.358,145.929ZM862.112,501.008L862.112,804.81L660.828,878.071L660.828,574.27L862.112,501.008ZM660.828,219.19L862.112,145.929L862.112,449.73L660.828,522.992L660.828,219.19ZM161.888,522.992L161.888,219.19L363.172,145.929L363.172,449.73L161.888,522.992ZM612.642,878.071L411.358,804.81L411.358,501.008L612.642,574.27L612.642,878.071ZM363.172,804.81L161.888,878.071L161.888,574.27L363.172,501.008L363.172,804.81Z" style="fill:url(#_Linear1);"/>
            </g>
            <g transform="matrix(1,0,0,1,-59,28)">
                <path d="M102.506,557.888L102.506,557.866C102.504,557.561 102.504,557.257 102.506,556.952L102.506,202.32C102.506,187.485 111.785,174.234 125.726,169.16L375.195,78.36C382.992,75.522 391.538,75.522 399.335,78.36L636.735,164.767L874.135,78.36C884.955,74.422 897.015,76.01 906.446,82.614C915.877,89.218 921.494,100.007 921.494,111.521L921.494,466.117C921.497,466.427 921.497,466.737 921.494,467.047L921.494,821.68C921.494,836.515 912.215,849.766 898.274,854.84L648.805,945.64C644.821,947.09 640.744,947.773 636.735,947.772C632.726,947.773 628.649,947.09 624.665,945.64L387.265,859.233L149.865,945.64C139.045,949.578 126.985,947.99 117.554,941.386C108.123,934.782 102.506,923.993 102.506,912.479L102.506,557.888ZM116.962,557.806L116.962,912.479C116.962,919.276 120.278,925.646 125.846,929.545C131.414,933.444 138.533,934.381 144.921,932.056L387.265,843.85L629.61,932.056C631.961,932.912 634.368,933.317 636.735,933.316C639.102,933.317 641.509,932.912 643.86,932.056L893.33,841.257C901.56,838.261 907.038,830.438 907.038,821.68L907.038,466.988C907.041,466.723 907.041,466.458 907.038,466.194L907.038,111.521C907.038,104.724 903.722,98.354 898.154,94.455C892.586,90.556 885.467,89.619 879.079,91.944L636.735,180.15L394.39,91.944C389.788,90.269 384.742,90.269 380.14,91.944L130.67,182.743C122.44,185.739 116.962,193.562 116.962,202.32L116.962,557.012C116.959,557.277 116.959,557.542 116.962,557.806Z" style="fill:rgb(11,111,113);"/>
            </g>
        </g>
    </g>
    <defs>
        <linearGradient id="_Linear1" x1="0" y1="0" x2="1" y2="0" gradientUnits="userSpaceOnUse" gradientTransform="matrix(790.080297,842.629122,-842.629122,790.080297,116.959851,90.687282)"><stop offset="0" style="stop-color:rgb(11,111,113);stop-opacity:1"/><stop offset="0.5" style="stop-color:rgb(15,139,141);stop-opacity:1"/><stop offset="1" style="stop-color:rgb(78,191,195);stop-opacity:1"/></linearGradient>
    </defs>
</svg>
