<?xml version="1.0" encoding="UTF-8" standalone="no"?>
<!DOCTYPE svg PUBLIC "-//W3C//DTD SVG 1.1//EN" "http://www.w3.org/Graphics/SVG/1.1/DTD/svg11.dtd">
<svg width="100%" height="100%" viewBox="0 0 1024 1024" version="1.1" xmlns="http://www.w3.org/2000/svg" xmlns:xlink="http://www.w3.org/1999/xlink" xml:space="preserve" xmlns:serif="http://www.serif.com/" style="fill-rule:evenodd;clip-rule:evenodd;stroke-linecap:round;stroke-linejoin:round;stroke-miterlimit:1.5;">
    <g transform="matrix(1,0,0,1,59,-28)">
        <g id="Icon" transform="matrix(0.889782,0,0,0.889782,-190.927669,80.900689)">
            <g id="Rounded" transform="matrix(1.123871,0,0,1.123871,148.269677,-59.453548)">
                <path d="M1024,225C1024,165.326 1000.295,108.097 958.099,65.901C915.903,23.705 858.674,-0 799,-0L225,0C165.326,-0 108.097,23.705 65.901,65.901C23.705,108.097 -0,165.326 0,225L0,799C-0,858.674 23.705,915.903 65.901,958.099C108.097,1000.295 165.326,1024 225,1024L799,1024C858.674,1024 915.903,1000.295 958.099,958.099C1000.295,915.903 1024,858.674 1024,799L1024,225Z" style="fill:url(#_Linear1);"/>
            </g>
            <g id="Alt" transform="matrix(0.894869,0,0,0.894869,16.744761,82.404147)">
                <g transform="matrix(1.227512,-0.446778,-0,1.115101,202.635303,-9.742644)">
                    <path d="M587,1061.887L370,888L370,208L370,888L153,888L153,208L370,208L587,381.887L587,1061.887L587,381.887L804,381.887L804,1061.887L587,1061.887" style="fill:none;stroke:rgb(240,240,240);stroke-width:52.95px;"/>
                </g>
                <g transform="matrix(1.227512,-0.446778,-0,1.115101,202.635303,-388.876822)">
                    <path d="M153,888L370,888L587,1061.887L370,888L587,1061.887L804,1061.887" style="fill:none;stroke:rgb(240,240,240);stroke-width:52.95px;"/>
                </g>
            </g>
        </g>
    </g>
    <defs>
        <linearGradient id="_Linear1" x1="0" y1="0" x2="1" y2="0" gradientUnits="userSpaceOnUse" gradientTransform="matrix(1024,1024,-1024,1024,-0,-0)"><stop offset="0" style="stop-color:rgb(11,111,113);stop-opacity:1"/><stop offset="0.5" style="stop-color:rgb(15,139,141);stop-opacity:1"/><stop offset="1" style="stop-color:rgb(78,191,195);stop-opacity:1"/></linearGradient>
    </defs>
</svg>
